<mxfile host="app.diagrams.net" agent="Mozilla/5.0 (X11; Linux x86_64; rv:109.0) Gecko/20100101 Firefox/114.0" version="24.7.6">
  <diagram name="Page-1" id="efa7a0a1-bf9b-a30e-e6df-94a7791c09e9">
    <mxGraphModel dx="880" dy="510" grid="1" gridSize="10" guides="1" tooltips="1" connect="1" arrows="1" fold="1" page="1" pageScale="1" pageWidth="826" pageHeight="1169" background="none" math="0" shadow="0">
      <root>
        <mxCell id="0" />
        <mxCell id="1" parent="0" />
        <mxCell id="29" value="&lt;p style=&quot;margin: 0px; margin-top: 4px; text-align: center; text-decoration: underline;&quot;&gt;&lt;strong&gt;empleados&lt;br&gt;&lt;/strong&gt;&lt;/p&gt;&lt;hr&gt;&lt;p style=&quot;margin: 0px 0px 0px 8px; font-size: 11px;&quot;&gt;&lt;font style=&quot;font-size: 12px;&quot;&gt;num_empleado&lt;/font&gt; &lt;font style=&quot;font-size: 8px;&quot;&gt;INT PRIMARY KEY&lt;/font&gt;&lt;span style=&quot;white-space: pre;&quot;&gt;&#x9;&lt;/span&gt;&lt;span style=&quot;white-space: pre;&quot;&gt;&#x9;&lt;/span&gt;&lt;/p&gt;&lt;p style=&quot;margin: 0px 0px 0px 8px; font-size: 8px;&quot;&gt;&lt;font style=&quot;font-size: 12px;&quot;&gt;nombre&lt;/font&gt; &lt;font style=&quot;font-size: 8px;&quot;&gt;VARCHAR(16)&lt;/font&gt;&lt;br&gt;&lt;/p&gt;&lt;p style=&quot;margin: 0px 0px 0px 8px;&quot;&gt;apellido_paterno &lt;font style=&quot;font-size: 8px;&quot;&gt;VARCHAR(16)&lt;/font&gt;&lt;/p&gt;&lt;p style=&quot;margin: 0px; margin-left: 8px;&quot;&gt;apellido_materno &lt;font style=&quot;font-size: 8px;&quot;&gt;VARCHAR(16)&lt;/font&gt;&lt;/p&gt;&lt;p style=&quot;margin: 0px 0px 0px 8px; font-size: 11px;&quot;&gt;fecha_nacimiento &lt;font style=&quot;font-size: 8px;&quot;&gt;DATE&lt;/font&gt;&lt;br&gt;&lt;/p&gt;&lt;p style=&quot;margin: 0px; margin-left: 8px;&quot;&gt;centro_trabajo &lt;font style=&quot;font-size: 8px;&quot;&gt;VARCHAR(64)&lt;/font&gt;&lt;/p&gt;&lt;p style=&quot;margin: 0px; margin-left: 8px;&quot;&gt;puesto &lt;font style=&quot;font-size: 8px;&quot;&gt;VARCHAR(16)&lt;/font&gt;&lt;/p&gt;&lt;p style=&quot;margin: 0px; margin-left: 8px;&quot;&gt;descripcion_puesto &lt;font style=&quot;font-size: 8px;&quot;&gt;VARCHAR(128)&lt;/font&gt;&lt;/p&gt;&lt;p style=&quot;margin: 0px 0px 0px 8px; font-size: 11px;&quot;&gt;directivo &lt;font style=&quot;font-size: 9px;&quot;&gt;BIT(1)&lt;/font&gt;&lt;br&gt;rfc &lt;font style=&quot;font-size: 8px;&quot;&gt;VARCHAR(16)&lt;/font&gt;&lt;/p&gt;" style="verticalAlign=top;align=left;overflow=fill;fontSize=12;fontFamily=Helvetica;html=1;strokeColor=#003366;shadow=1;fillColor=#D4E1F5;fontColor=#003366" parent="1" vertex="1">
          <mxGeometry x="591.08" y="531.96" width="178.92" height="200" as="geometry" />
        </mxCell>
        <mxCell id="48" value="" style="endArrow=open;endSize=12;startArrow=diamondThin;startSize=14;startFill=0;edgeStyle=orthogonalEdgeStyle;exitX=1;exitY=0.25;rounded=0" parent="1" source="29" target="4FeQsWRlKR7P0PWjO7TO-114" edge="1">
          <mxGeometry x="769.3599999999999" y="450" as="geometry">
            <mxPoint x="769.3599999999999" y="450" as="sourcePoint" />
            <mxPoint x="880" y="520" as="targetPoint" />
          </mxGeometry>
        </mxCell>
        <mxCell id="49" value="n..1" style="resizable=0;align=left;verticalAlign=top;labelBackgroundColor=#ffffff;fontSize=10;strokeColor=#003366;shadow=1;fillColor=#D4E1F5;fontColor=#003366" parent="48" connectable="0" vertex="1">
          <mxGeometry x="-1" relative="1" as="geometry">
            <mxPoint x="9" y="3" as="offset" />
          </mxGeometry>
        </mxCell>
        <mxCell id="4FeQsWRlKR7P0PWjO7TO-114" value="&lt;p style=&quot;margin: 0px; margin-top: 4px; text-align: center; text-decoration: underline;&quot;&gt;&lt;strong&gt;centros&lt;br&gt;&lt;/strong&gt;&lt;/p&gt;&lt;hr&gt;&lt;p style=&quot;margin: 0px 0px 0px 8px; font-size: 11px;&quot;&gt;&lt;font style=&quot;font-size: 12px;&quot;&gt;num_centro&lt;/font&gt; &lt;font style=&quot;font-size: 8px;&quot;&gt;INT PRIMARY KEY&lt;/font&gt;&lt;span style=&quot;white-space: pre;&quot;&gt;&#x9;&lt;/span&gt;&lt;span style=&quot;white-space: pre;&quot;&gt;&#x9;&lt;/span&gt;&lt;/p&gt;&lt;p style=&quot;margin: 0px 0px 0px 8px; font-size: 8px;&quot;&gt;&lt;font style=&quot;font-size: 12px;&quot;&gt;nombre&lt;/font&gt; &lt;font style=&quot;font-size: 8px;&quot;&gt;VARCHAR(64)&lt;/font&gt;&lt;br&gt;&lt;/p&gt;&lt;p style=&quot;margin: 0px 0px 0px 8px;&quot;&gt;ciudad &lt;font style=&quot;font-size: 8px;&quot;&gt;VARCHAR(16)&lt;/font&gt;&lt;/p&gt;&lt;p style=&quot;margin: 0px; margin-left: 8px;&quot;&gt;titular &lt;font style=&quot;font-size: 8px;&quot;&gt;INT FOREIGN KEY&lt;/font&gt;&lt;/p&gt;" style="verticalAlign=top;align=left;overflow=fill;fontSize=12;fontFamily=Helvetica;html=1;strokeColor=#003366;shadow=1;fillColor=#D4E1F5;fontColor=#003366" vertex="1" parent="1">
          <mxGeometry x="830" y="380" width="178.92" height="110" as="geometry" />
        </mxCell>
        <mxCell id="4FeQsWRlKR7P0PWjO7TO-115" value="1..n" style="resizable=0;align=left;verticalAlign=top;labelBackgroundColor=#ffffff;fontSize=10;strokeColor=#003366;shadow=1;fillColor=#D4E1F5;fontColor=#003366" connectable="0" vertex="1" parent="1">
          <mxGeometry x="930" y="500.00000000000006" as="geometry" />
        </mxCell>
      </root>
    </mxGraphModel>
  </diagram>
</mxfile>
